<?xml version="1.0" encoding="utf-8"?>
<!-- Generator: Adobe Illustrator 21.0.2, SVG Export Plug-In . SVG Version: 6.00 Build 0)  -->
<svg version="1.1" id="Layer_1" xmlns="http://www.w3.org/2000/svg" xmlns:xlink="http://www.w3.org/1999/xlink" x="0px" y="0px"
	 viewBox="0 0 960 500" style="enable-background:new 0 0 960 500;" xml:space="preserve">
<style type="text/css">
	.st0{fill:#FFC535;}
</style>
<g>
	<path class="st0" d="M490.3,241.9v42.8h10.8v-42.8c0-2.4,2-4.4,4.4-4.4h20.2v-10.8h-20.2C497.1,226.7,490.3,233.5,490.3,241.9z"/>
	<path class="st0" d="M425.1,246.7v18c0,11,9,20,20,20h34.8v-10.8h-34c-5.5,0-10-4.5-10-10v-2.8h44h0.1l0-14.5c0-11-9-19.9-20-19.9
		h-14.9C434,226.7,425.1,235.6,425.1,246.7z M435.9,250.3v-2.8c0-5.5,4.5-10,10-10h13.3c5.5,0,10,4.5,10,10v2.8H435.9z"/>
	<path class="st0" d="M534.4,246.7v18c0,11,9,20,20,20h34.8v-10.8h-34c-5.5,0-10-4.5-10-10v-2.8h44h0.1l0-14.5c0-11-9-19.9-20-19.9
		h-14.9C543.4,226.7,534.4,235.6,534.4,246.7z M545.2,250.3v-2.8c0-5.5,4.5-10,10-10h13.3c5.5,0,10,4.5,10,10v2.8H545.2z"/>
	<path class="st0" d="M790.4,241.9L790.4,241.9c0-8.4-6.8-15.2-15.2-15.2h-23.5c-8.4,0-15.2,6.8-15.2,15.2v4
		c0,8.4,6.8,15.2,15.2,15.2h21.5c3.5,0,6.4,2.9,6.4,6.4l0,0c0,3.5-2.9,6.4-6.4,6.4h-21.5c-2.4,0-4.4-2-4.4-4.4l0,0h-10.8l0,0
		c0,8.4,6.8,15.2,15.2,15.2h23.4c8.4,0,15.2-6.8,15.2-15.2v0c0-10.6-8.6-19.2-19.2-19.2h-17.5c-3.5,0-6.4-2.9-6.4-6.4v0
		c0-3.5,2.9-6.4,6.4-6.4h21.5c2.4,0,4.4,2,4.4,4.4v0H790.4z"/>
	<path class="st0" d="M612.7,226.7v-19h-10.8v77h36.8c11,0,20-8.9,20-20l0-18c0-11.1-8.9-20-20-20H612.7z M612.7,273.9v-36.4H638
		c5.5,0,10,4.5,10,10v16.4c0,5.5-4.5,10-10,10H612.7z"/>
	<path class="st0" d="M704.6,273.9h-15.4c-5.5,0-10-4.5-10-10v-37.2h-10.8v38c0,11,9,20,20,20h17c11,0,20-9,20-20v-38h-10.8v37.2
		C714.6,269.4,710.1,273.9,704.6,273.9z"/>
	<path class="st0" d="M368,246.7v18c0,11,9,20,20,20h28.8v-10.8h-28c-5.5,0-10-4.5-10-10v-16.4c0-5.5,4.5-10,10-10h28v-10.8H388
		C376.9,226.7,368,235.6,368,246.7z"/>
</g>
<g>
	<path class="st0" d="M219.4,314.3L183,251.2c-0.4-0.6-0.4-1.4,0-2l36.4-63.1c0.4-0.6,1-1,1.7-1h44.5c1.1,0,2-0.9,2-2v-6
		c0-1.1-0.9-2-2-2h-50.2c-0.7,0-1.4,0.4-1.7,1l-42.2,73.1c-0.4,0.6-0.4,1.4,0,2l42.2,73.1c0.4,0.6,1,1,1.7,1h30.2c1.1,0,2-0.9,2-2
		v-6c0-1.1-0.9-2-2-2h-24.5C220.5,315.3,219.8,314.9,219.4,314.3z"/>
	<path class="st0" d="M320.7,249.2L290,196c-0.4-0.6-1-1-1.7-1h-36.7c-1.1,0-2,0.9-2,2v6c0,1.1,0.9,2,2,2h30.9c0.7,0,1.4,0.4,1.7,1
		l24.9,43.1c0.4,0.6,0.4,1.4,0,2l-24.9,43.1c-0.4,0.6-1,1-1.7,1h-14.9c-1.1,0-2,0.9-2,2v6c0,1.1,0.9,2,2,2h20.7c0.7,0,1.4-0.4,1.7-1
		l30.7-53.1C321.1,250.6,321.1,249.8,320.7,249.2z"/>
	<path class="st0" d="M242.5,274.3l-13.4-23.1c-0.4-0.6-0.4-1.4,0-2l13.4-23.1c0.4-0.6,1-1,1.7-1h17.4c1.1,0,2-0.9,2-2v-6
		c0-1.1-0.9-2-2-2h-23.1c-0.7,0-1.4,0.4-1.7,1l-19.1,33.1c-0.4,0.6-0.4,1.4,0,2l19.1,33.1c0.4,0.6,1,1,1.7,1h7.1c1.1,0,2-0.9,2-2v-6
		c0-1.1-0.9-2-2-2h-1.4C243.6,275.3,242.9,274.9,242.5,274.3z"/>
	<path class="st0" d="M274.5,249.2l-7.6-12.1c-0.4-0.6-1-1-1.7-1h-7.6c-1.1,0-2,0.9-2,2v4c0,1.1,0.9,2,2,2h2.9c0.7,0,1.4,0.4,1.7,1
		l2.8,4.1c0.4,0.6,0.4,1.4,0,2l-2.8,4.1c-0.4,0.6-1,1-1.7,1h-2.9c-1.1,0-2,0.9-2,2v4c0,1.1,0.9,2,2,2h7.6c0.7,0,1.4-0.4,1.7-1
		l7.6-12.1C274.9,250.6,274.9,249.8,274.5,249.2z"/>
</g>
</svg>
